<mxfile host="app.diagrams.net" agent="Mozilla/5.0 (Windows NT 10.0; Win64; x64) AppleWebKit/537.36 (KHTML, like Gecko) Chrome/126.0.0.0 Safari/537.36 OPR/112.0.0.0 (Edition std-1)" version="24.7.10">
  <diagram name="Página-1" id="IcoShe6AvTpP6TMzOyhU">
    <mxGraphModel grid="1" page="1" gridSize="10" guides="1" tooltips="1" connect="1" arrows="1" fold="1" pageScale="1" pageWidth="827" pageHeight="1169" math="0" shadow="0">
      <root>
        <mxCell id="0" />
        <mxCell id="1" parent="0" />
        <mxCell id="r61yuXvZHYepOALdz0Op-3" value="" style="rounded=0;whiteSpace=wrap;html=1;" vertex="1" parent="1">
          <mxGeometry x="160" y="80" width="500" height="420" as="geometry" />
        </mxCell>
        <mxCell id="r61yuXvZHYepOALdz0Op-8" style="edgeStyle=none;rounded=0;orthogonalLoop=1;jettySize=auto;html=1;exitX=0.5;exitY=0.5;exitDx=0;exitDy=0;exitPerimeter=0;entryX=0;entryY=0.5;entryDx=0;entryDy=0;" edge="1" parent="1" source="r61yuXvZHYepOALdz0Op-1" target="r61yuXvZHYepOALdz0Op-4">
          <mxGeometry relative="1" as="geometry" />
        </mxCell>
        <mxCell id="r61yuXvZHYepOALdz0Op-1" value="Usuario Alumno" style="shape=umlActor;verticalLabelPosition=bottom;verticalAlign=top;html=1;outlineConnect=0;" vertex="1" parent="1">
          <mxGeometry x="80" y="220" width="30" height="60" as="geometry" />
        </mxCell>
        <mxCell id="r61yuXvZHYepOALdz0Op-9" style="edgeStyle=none;rounded=0;orthogonalLoop=1;jettySize=auto;html=1;exitX=1;exitY=0.5;exitDx=0;exitDy=0;entryX=0;entryY=0.5;entryDx=0;entryDy=0;" edge="1" parent="1" source="r61yuXvZHYepOALdz0Op-4" target="r61yuXvZHYepOALdz0Op-7">
          <mxGeometry relative="1" as="geometry" />
        </mxCell>
        <mxCell id="r61yuXvZHYepOALdz0Op-12" value="&amp;lt;&amp;lt;include&amp;gt;&amp;gt;" style="edgeLabel;html=1;align=center;verticalAlign=middle;resizable=0;points=[];" connectable="0" vertex="1" parent="r61yuXvZHYepOALdz0Op-9">
          <mxGeometry x="0.0423" y="-3" relative="1" as="geometry">
            <mxPoint as="offset" />
          </mxGeometry>
        </mxCell>
        <mxCell id="r61yuXvZHYepOALdz0Op-10" style="edgeStyle=none;rounded=0;orthogonalLoop=1;jettySize=auto;html=1;exitX=1;exitY=0.5;exitDx=0;exitDy=0;entryX=0;entryY=0.5;entryDx=0;entryDy=0;" edge="1" parent="1" source="r61yuXvZHYepOALdz0Op-4" target="r61yuXvZHYepOALdz0Op-6">
          <mxGeometry relative="1" as="geometry" />
        </mxCell>
        <mxCell id="r61yuXvZHYepOALdz0Op-13" value="&amp;lt;&amp;lt;include&amp;gt;&amp;gt;" style="edgeLabel;html=1;align=center;verticalAlign=middle;resizable=0;points=[];" connectable="0" vertex="1" parent="r61yuXvZHYepOALdz0Op-10">
          <mxGeometry x="0.0437" y="1" relative="1" as="geometry">
            <mxPoint as="offset" />
          </mxGeometry>
        </mxCell>
        <mxCell id="r61yuXvZHYepOALdz0Op-11" style="edgeStyle=none;rounded=0;orthogonalLoop=1;jettySize=auto;html=1;exitX=1;exitY=0.5;exitDx=0;exitDy=0;entryX=0;entryY=0.5;entryDx=0;entryDy=0;" edge="1" parent="1" source="r61yuXvZHYepOALdz0Op-4" target="r61yuXvZHYepOALdz0Op-5">
          <mxGeometry relative="1" as="geometry" />
        </mxCell>
        <mxCell id="r61yuXvZHYepOALdz0Op-14" value="&amp;lt;&amp;lt;include&amp;gt;&amp;gt;" style="edgeLabel;html=1;align=center;verticalAlign=middle;resizable=0;points=[];" connectable="0" vertex="1" parent="r61yuXvZHYepOALdz0Op-11">
          <mxGeometry x="0.0123" y="2" relative="1" as="geometry">
            <mxPoint as="offset" />
          </mxGeometry>
        </mxCell>
        <mxCell id="r61yuXvZHYepOALdz0Op-4" value="Recuperar contraseña" style="ellipse;whiteSpace=wrap;html=1;" vertex="1" parent="1">
          <mxGeometry x="200" y="210" width="120" height="80" as="geometry" />
        </mxCell>
        <mxCell id="r61yuXvZHYepOALdz0Op-5" value="Establecer nueva contraseña" style="ellipse;whiteSpace=wrap;html=1;" vertex="1" parent="1">
          <mxGeometry x="500" y="310" width="120" height="80" as="geometry" />
        </mxCell>
        <mxCell id="r61yuXvZHYepOALdz0Op-6" value="Recibir enlace de recuperacion" style="ellipse;whiteSpace=wrap;html=1;" vertex="1" parent="1">
          <mxGeometry x="500" y="220" width="120" height="80" as="geometry" />
        </mxCell>
        <mxCell id="r61yuXvZHYepOALdz0Op-7" value="Ingresar correo electronico" style="ellipse;whiteSpace=wrap;html=1;" vertex="1" parent="1">
          <mxGeometry x="500" y="130" width="120" height="80" as="geometry" />
        </mxCell>
      </root>
    </mxGraphModel>
  </diagram>
</mxfile>
